<?xml version="1.0" encoding="iso-8859-1"?>
<!-- Generator: Adobe Illustrator 19.0.0, SVG Export Plug-In . SVG Version: 6.00 Build 0)  -->
<svg version="1.1" id="Layer_1" xmlns="http://www.w3.org/2000/svg" xmlns:xlink="http://www.w3.org/1999/xlink" x="0px" y="0px"
	 viewBox="0 0 512 512" style="enable-background:new 0 0 512 512;" xml:space="preserve">
<path style="fill:#D93F21;" d="M512,72.348v33.391c0,9.22-7.475,16.696-16.696,16.696h-38.957v38.957
	c0,9.22-7.475,16.696-16.696,16.696h-33.391c-9.22,0-16.696-7.475-16.696-16.696v-38.957h-38.957
	c-9.22,0-16.696-7.475-16.696-16.696V72.348c0-9.22,7.475-16.696,16.696-16.696h38.957V16.696c0-9.22,7.475-16.696,16.696-16.696
	h33.391c9.22,0,16.696,7.475,16.696,16.696v38.957h38.957C504.525,55.653,512,63.128,512,72.348z"/>
<path style="fill:#FF4B26;" d="M400.696,311.653c0,11.353-1.002,22.483-2.894,33.391
	c-16.835,100.771-109.433,176.285-217.005,166.022c-93.111-8.884-169.091-83.497-179.508-176.45
	c-13.518-120.631,81.08-223.311,199.059-223.311c48.723,0,93.459,17.512,128.237,46.569c7.487,6.255,7.855,17.686,0.956,24.585
	l-23.712,23.712c-6.038,6.038-15.577,6.449-22.248,1.117c-22.825-18.242-51.771-29.201-83.233-29.201
	c-5.807,0-11.699,0.373-17.655,1.143c-55.708,7.199-108.968,61.561-115.086,117.398c-8.808,80.392,54.107,148.589,132.742,148.589
	c62.219,0,114.532-42.741,129.336-100.285h-112.64c-9.22,0-16.696-7.364-16.696-16.584v-33.391c0-9.22,7.475-16.696,16.696-16.696
	h166.089c8.657,0,15.894,6.605,16.707,15.224C400.404,299.476,400.696,305.532,400.696,311.653z"/>
<g>
	<path style="fill:#D93F21;" d="M383.132,278.261H217.044c-9.216,0-16.696,7.48-16.696,16.696v33.391
		c0,9.216,7.48,16.584,16.696,16.584h112.64c-14.803,57.544-67.117,100.285-129.336,100.285v66.777
		c99.058,0.001,181.653-72.337,197.454-166.951c1.892-10.908,2.894-22.038,2.894-33.391c0-6.122-0.289-12.177-0.857-18.165
		C399.026,284.862,391.792,278.261,383.132,278.261z"/>
	<path style="fill:#D93F21;" d="M329.539,182.462l-23.708,23.708c-6.044,6.044-15.583,6.456-22.25,1.124
		c-22.829-18.243-51.779-29.206-83.233-29.206v-66.783c48.718,0,93.462,17.508,128.234,46.57
		C336.073,164.13,336.44,175.561,329.539,182.462z"/>
</g>
<g>
</g>
<g>
</g>
<g>
</g>
<g>
</g>
<g>
</g>
<g>
</g>
<g>
</g>
<g>
</g>
<g>
</g>
<g>
</g>
<g>
</g>
<g>
</g>
<g>
</g>
<g>
</g>
<g>
</g>
</svg>
