<?xml version="1.0" encoding="iso-8859-1"?>
<!-- Generator: Adobe Illustrator 19.1.0, SVG Export Plug-In . SVG Version: 6.00 Build 0)  -->
<svg xmlns="http://www.w3.org/2000/svg" xmlns:xlink="http://www.w3.org/1999/xlink" version="1.1" id="Capa_1" x="0px" y="0px" viewBox="0 0 486.204 486.204" style="enable-background:new 0 0 486.204 486.204;" xml:space="preserve" width="512px" height="512px">
<g>
	<g>
		<g>
			<path d="M410.6,306.002c-19.2-15.8-39.9-26.3-44.2-28.3c-0.5-0.2-0.8-0.7-0.8-1.2v-29.9c3.8-2.5,6.2-6.8,6.2-11.6v-31     c0-15.4-12.5-27.9-27.9-27.9h-3.3h-3.3c-15.4,0-27.9,12.5-27.9,27.9v31c0,4.9,2.5,9.1,6.2,11.6v29.9c0,0.2,0,0.4-0.1,0.5     c5.9,4,12,8.6,18,13.5c7,5.8,11.1,14.3,11.1,23.5v25h71.5v-21.3C416,313.102,414,308.902,410.6,306.002z" fill="#FFFFFF"/>
		</g>
		<g>
			<path d="M170.8,276.402v-29.9c3.8-2.5,6.2-6.8,6.2-11.6v-31c0-15.4-12.5-27.9-27.9-27.9h-3.3h-3.3c-15.4,0-27.9,12.5-27.9,27.9     v31c0,4.9,2.5,9.1,6.2,11.6v29.9c0,0.5-0.3,1-0.8,1.2c-4.2,2.1-24.9,12.5-44.2,28.3c-3.5,2.9-5.5,7.1-5.5,11.6v21.3h71.5v-25     c0-9.1,4-17.7,11.1-23.5c6-4.9,12.1-9.5,18-13.5C170.9,276.802,170.8,276.602,170.8,276.402z" fill="#FFFFFF"/>
		</g>
		<g>
			<path d="M481.9,312.502c-15.4-12.7-32-21-35.4-22.7c-0.4-0.2-0.6-0.6-0.6-1v-24c3-2,5-5.4,5-9.3v-24.9c0-12.4-10-22.4-22.4-22.4     h-2.7h-2.6c-12.4,0-22.4,10-22.4,22.4v24.9c0,3.9,2,7.3,5,9.3v21.3c4.3,3,8.7,6.3,13,9.9c6.5,5.3,10.2,13.2,10.2,21.7v21.3h57.2     v-17C486.3,318.202,484.7,314.802,481.9,312.502z" fill="#FFFFFF"/>
		</g>
		<g>
			<path d="M80.6,264.902c3-2,5-5.4,5-9.3v-24.9c0-12.4-10-22.4-22.4-22.4h-2.7h-2.7c-12.4,0-22.4,10-22.4,22.4v24.9     c0,3.9,2,7.3,5,9.3v24c0,0.4-0.2,0.8-0.6,1c-3.4,1.7-20,10-35.4,22.7c-2.8,2.3-4.4,5.7-4.4,9.3v17h57.2v-21.3     c0-8.4,3.7-16.3,10.2-21.7c4.3-3.6,8.7-6.9,13-9.9v-21.1H80.6z" fill="#FFFFFF"/>
		</g>
		<g>
			<path d="M325.4,300.202c-22.6-18.6-46.9-30.9-51.9-33.3c-0.6-0.3-0.9-0.8-0.9-1.5v-35.2c4.4-2.9,7.3-8,7.3-13.7v-36.5     c0-18.1-14.7-32.8-32.8-32.8h-3.9h-3.9c-18.1,0-32.8,14.7-32.8,32.8v36.5c0,5.7,2.9,10.7,7.3,13.7v35.2c0,0.6-0.4,1.2-0.9,1.5     c-5,2.4-29.3,14.7-51.9,33.3c-4.1,3.4-6.4,8.4-6.4,13.7v25h77l7.6-34.8c-15.4-21.4,1.1-22.5,4-22.5l0,0l0,0     c2.9,0,19.4,1.1,4,22.5l7.6,34.8h77v-25C331.9,308.602,329.5,303.602,325.4,300.202z" fill="#FFFFFF"/>
		</g>
	</g>
</g>
<g>
</g>
<g>
</g>
<g>
</g>
<g>
</g>
<g>
</g>
<g>
</g>
<g>
</g>
<g>
</g>
<g>
</g>
<g>
</g>
<g>
</g>
<g>
</g>
<g>
</g>
<g>
</g>
<g>
</g>
</svg>
