<?xml version="1.0" encoding="iso-8859-1"?>
<!-- Generator: Adobe Illustrator 19.0.0, SVG Export Plug-In . SVG Version: 6.00 Build 0)  -->
<svg xmlns="http://www.w3.org/2000/svg" xmlns:xlink="http://www.w3.org/1999/xlink" version="1.1" id="Capa_1" x="0px" y="0px" viewBox="0 0 489.994 489.994" style="enable-background:new 0 0 489.994 489.994;" xml:space="preserve" width="512px" height="512px">
<g>
	<g>
		<path d="M377.083,112.462c4.9,6.6,14.2,7.9,20.7,3.1l48.7-36.2c6.6-4.9,7.9-14.2,3.1-20.7l-0.2-0.3c-4.9-6.6-14.2-7.9-20.7-3.1    l-48.7,36.2c-6.6,4.9-7.9,14.2-3.1,20.7L377.083,112.462z" fill="#1E68B9"/>
		<path d="M393.184,2.762c-7-5-16.7-3-21.2,4.3l-32.5,52.6c-4.1,6.6-2.4,15.3,4,19.8c7,5,16.7,3,21.2-4.3l32.5-52.6    C401.283,15.962,399.483,7.262,393.184,2.762z" fill="#1E68B9"/>
		<path d="M416.583,163.462l59.8-16c8.3-2.2,13-11,10.2-19.1c-2.5-7.4-10.3-11.5-17.9-9.5l-59.8,16c-8.3,2.2-13,11-10.2,19.1    C401.283,161.262,409.083,165.462,416.583,163.462z" fill="#1E68B9"/>
		<path d="M210.983,25.062c-8.6,5-10.9,15.9-5.7,23.8c-12.8,73.5-63.5,135.6-96.3,169.3c-7.8-5.8-18.8-6.2-27,0l-48.2,35.8    c-27.5,20.4-33.2,59.2-12.8,86.7l-3.9-5.3l-9.3,6.9c-5.7,4.2-6.9,12.3-2.6,17.9l28.6,38.5c4.2,5.7,12.3,6.9,18,2.6l9.3-6.9    l-5.3-7.2c17.5,23.5,48.4,31,74.2,19.9l97.5,81c2.7,2.4,6.8,2.6,9.7,0.4l3.4-2.5l37.3-27.7l15.4-11.4c3.6-2.7,3.8-8.1,0.3-11    l-20.6-17.1c-3.5-2.9-8.6-3.1-12.3-0.3c-9,6.7-21.4,6.4-30.1-0.7l-53.3-43.5l13.5-10.1c8.2-6.1,11-16.7,7.7-25.9    c41.7-21.7,115.8-52.4,189.8-43.4c6.1,7.3,17.2,8.2,24.5,1.4c6.3-6,6.6-16,1.4-23l-58.8-79.1c12.5-19.3,12.5-45.2-2.1-64.8    c-14.5-19.6-39.3-27-61.4-20.7l-58.3-78.4C228.283,23.462,218.583,20.762,210.983,25.062z M118.183,367.562    c-9.5,7.1-22.9,5.1-30-4.4l-34.7-46.7c-7.1-9.5-5.1-22.9,4.4-30l33.9-25.2l60.3,81.1L118.183,367.562z" fill="#1E68B9"/>
	</g>
</g>
<g>
</g>
<g>
</g>
<g>
</g>
<g>
</g>
<g>
</g>
<g>
</g>
<g>
</g>
<g>
</g>
<g>
</g>
<g>
</g>
<g>
</g>
<g>
</g>
<g>
</g>
<g>
</g>
<g>
</g>
</svg>
